<svg version="1.1" id="Layer_1" xmlns="http://www.w3.org/2000/svg" xmlns:xlink="http://www.w3.org/1999/xlink" x="0px" y="0px"
	 width="100%" viewBox="0 0 275 275" enable-background="new 0 0 275 275" xml:space="preserve">
<path fill="none" opacity="1.000000" stroke="#000000" stroke-linecap="round" stroke-linejoin="round" stroke-width="7.000000"
	d="
M105.000000,137.000000 
	C110.664459,137.241837 116.326012,136.743057 122.010094,137.414566 
	C126.810715,137.981705 133.573547,130.928406 133.999985,125.500000 
	C134.545837,118.551765 130.121628,113.088570 122.994751,112.572525 
	C117.855034,112.200363 112.666145,112.544434 107.500191,112.483841 
	C104.243446,112.445648 103.935936,114.324242 103.953667,117.000305 
	C104.050827,131.666336 104.000000,146.333328 104.000000,161.000000 
"/>
<path fill="none" opacity="1.000000" stroke="#000000" stroke-linecap="round" stroke-linejoin="round" stroke-width="6.000000"
	d="
M179.500000,119.500000 
	C179.067657,116.215759 177.855164,114.418114 174.071075,113.266464 
	C167.217651,111.180695 160.963058,110.672569 155.021576,115.029427 
	C149.138519,119.343430 149.947495,130.420807 158.517624,133.450134 
	C163.084930,135.064575 167.874512,136.039124 172.490402,137.529709 
	C179.523071,139.800720 182.552383,144.468948 181.500015,151.000000 
	C180.365021,158.043716 176.130341,161.297455 168.501572,161.547852 
	C161.547745,161.776108 155.088730,161.074799 150.500000,155.000000 
"/>
<path fill="none" opacity="1.000000" stroke="#000000" stroke-linecap="round" stroke-linejoin="round" stroke-width="6.000000"
	d="
M124.250000,138.000000 
	C130.533005,143.800156 131.891632,151.957687 134.420807,159.526459 
	C134.769043,160.568542 135.131866,161.245422 136.000000,161.750000 
"/>
<path fill="none" opacity="1.000000" stroke="#000000" stroke-linecap="round" stroke-linejoin="round" stroke-width="2.000000"
	d="
M67.500000,61.500000 
	C65.284409,62.790215 66.576538,64.882095 66.573479,66.500137 
	C66.482910,114.333305 66.500000,162.166672 66.500000,210.250000 
	C115.998878,210.250000 165.499435,210.250000 215.250000,210.250000 
	C215.250000,161.001129 215.250000,111.500565 215.250000,61.500000 
	C166.334457,61.500000 117.167229,61.500000 68.000000,61.500000 
"/>
</svg>